<svg width="214" height="230" fill="none" xmlns="http://www.w3.org/2000/svg"><g clip-path="url(#clip0)"><path d="M135.747 130.494l-92.504 23.794a12.241 12.241 0 01-9.256-1.314 12.219 12.219 0 01-5.623-7.461L.388 36.998a12.206 12.206 0 011.316-9.245 12.23 12.23 0 017.47-5.617L95.233 0l22.027 9.85 27.271 105.783a12.201 12.201 0 01-1.316 9.245 12.229 12.229 0 01-7.469 5.616z" fill="#F2F2F2"/><path d="M10.05 25.538a8.71 8.71 0 00-5.32 4 8.692 8.692 0 00-.936 6.584l27.975 108.515a8.702 8.702 0 004.005 5.313 8.722 8.722 0 006.59.936l92.505-23.794a8.71 8.71 0 005.319-3.999 8.69 8.69 0 00.937-6.584L114.276 12.365 94.918 3.709 10.05 25.539z" fill="#fff"/><path d="M117.025 10.41l-14.316 3.682a4.074 4.074 0 01-4.956-2.923L95.031.608a.254.254 0 01.349-.296l21.685 9.62a.25.25 0 01.115.102.252.252 0 01-.155.375z" fill="#F2F2F2"/><path d="M109.493 103.079l-42.115 10.833a2.023 2.023 0 01-2.134-.747 2.03 2.03 0 011.119-3.189l42.116-10.833a2.035 2.035 0 012.259 3.001 2.035 2.035 0 01-1.245.935zm9.841 4.552L69.09 120.554a2.034 2.034 0 01-2.26-3.001 2.034 2.034 0 011.245-.935l50.244-12.924a2.041 2.041 0 011.541.219 2.034 2.034 0 01-.526 3.718z" fill="#CCC"/><path d="M50.188 126.959c3.971 0 7.191-3.216 7.191-7.183 0-3.967-3.22-7.183-7.191-7.183a7.187 7.187 0 00-7.191 7.183c0 3.967 3.22 7.183 7.19 7.183z" fill="#E6E6E6"/><path d="M105.015 84.28L49.081 98.663a6.308 6.308 0 01-4.768-.677 6.295 6.295 0 01-2.896-3.844L29.695 48.657a6.288 6.288 0 01.678-4.763 6.3 6.3 0 013.848-2.893L90.156 26.62a6.307 6.307 0 014.768.678 6.295 6.295 0 012.896 3.843l11.722 45.485a6.298 6.298 0 01-4.527 7.656z" fill="#fff"/><path d="M105.015 84.28L49.081 98.663a6.308 6.308 0 01-4.768-.677 6.295 6.295 0 01-2.896-3.844L29.695 48.657a6.288 6.288 0 01.678-4.763 6.3 6.3 0 013.848-2.893L90.156 26.62a6.307 6.307 0 014.768.678 6.295 6.295 0 012.896 3.843l11.722 45.485a6.298 6.298 0 01-4.527 7.656zm-70.61-42.563a5.56 5.56 0 00-3.394 2.553 5.548 5.548 0 00-.599 4.203l11.722 45.484a5.555 5.555 0 002.555 3.391 5.565 5.565 0 004.208.598l55.934-14.382a5.561 5.561 0 003.395-2.552 5.549 5.549 0 00.599-4.203L97.103 31.325a5.554 5.554 0 00-2.556-3.392 5.565 5.565 0 00-4.207-.597L34.406 41.718z" fill="#E6E6E6"/><path d="M87.318 41.913l-28.23 7.258a1.012 1.012 0 01-1.224-.635.971.971 0 01.686-1.235l28.735-7.389c1.16.588.856 1.79.032 2.001zm1.274 4.946l-28.229 7.258a1.012 1.012 0 01-1.225-.635.971.971 0 01.686-1.235l28.736-7.389c1.16.588.855 1.79.032 2z" fill="#F2F2F2"/><path d="M54.986 58.502l-8.615 2.216a1.098 1.098 0 01-1.334-.787L42.42 49.775a1.094 1.094 0 01.788-1.332l8.615-2.215a1.098 1.098 0 011.334.787l2.617 10.155a1.094 1.094 0 01-.788 1.332z" fill="#E6E6E6"/><path d="M91.12 57.007L48.037 68.085a1.012 1.012 0 01-1.225-.636.971.971 0 01.686-1.235l43.59-11.208c1.16.588.855 1.79.032 2zm1.275 4.947L49.312 73.032a1.013 1.013 0 01-1.225-.636.971.971 0 01.686-1.235l43.59-11.208c1.16.588.855 1.79.032 2.001zm1.274 4.944L50.586 77.977a1.012 1.012 0 01-1.225-.635.973.973 0 01.686-1.235l43.59-11.208c1.16.587.855 1.789.032 2zm1.275 4.948L51.86 82.922a1.012 1.012 0 01-1.225-.636.973.973 0 01.686-1.234l43.59-11.208c1.16.587.855 1.789.032 2zm1.274 4.944L53.135 87.868a1.012 1.012 0 01-1.225-.636.973.973 0 01.686-1.235l43.59-11.208c1.16.588.855 1.79.032 2z" fill="#F2F2F2"/><path d="M50.718 122.294a.748.748 0 01-.471-.032l-.01-.004-1.959-.83a.742.742 0 01-.458-.697.75.75 0 011.046-.684l1.27.54 1.663-3.909a.747.747 0 01.698-.456.762.762 0 01.287.059l-.01.026.01-.026a.753.753 0 01.397.984l-1.957 4.596a.75.75 0 01-.505.432v.001z" fill="#fff"/><path d="M171.228 171.847H75.705a12.24 12.24 0 01-8.635-3.579 12.211 12.211 0 01-3.583-8.625V47.588a12.211 12.211 0 013.583-8.626 12.24 12.24 0 018.635-3.579h88.868l18.873 15.026v109.234a12.215 12.215 0 01-3.583 8.625 12.24 12.24 0 01-8.635 3.579z" fill="#E6E6E6"/><path d="M75.705 38.897a8.716 8.716 0 00-6.15 2.548 8.696 8.696 0 00-2.55 6.142v112.056a8.694 8.694 0 002.55 6.142 8.714 8.714 0 006.15 2.548h95.522a8.716 8.716 0 006.15-2.548 8.696 8.696 0 002.551-6.142V52.101l-16.586-13.204H75.705z" fill="#fff"/><path d="M152.649 71.48h-43.49a2.037 2.037 0 01-2.035-2.033 2.03 2.03 0 012.035-2.032h43.49a2.034 2.034 0 012.034 2.032 2.034 2.034 0 01-2.034 2.032zm8.392 6.858h-51.883a2.036 2.036 0 01-2.032-2.032 2.03 2.03 0 012.032-2.032h51.883a2.039 2.039 0 011.882 1.254 2.02 2.02 0 010 1.556 2.026 2.026 0 01-1.882 1.254z" fill="#E0AEFF"/><path d="M152.649 98.152H109.16a2.034 2.034 0 00-2.034 2.032 2.029 2.029 0 002.034 2.032h43.489a2.035 2.035 0 002.034-2.032 2.034 2.034 0 00-2.034-2.032zm8.393 6.86H109.16a2.035 2.035 0 00-2.034 2.032 2.036 2.036 0 002.034 2.033h51.882a2.038 2.038 0 002.035-2.033 2.035 2.035 0 00-2.035-2.032zm-8.393 27.944h-43.49a2.037 2.037 0 01-2.035-2.032 2.029 2.029 0 012.035-2.032h43.49a2.035 2.035 0 012.034 2.032 2.029 2.029 0 01-2.034 2.032zm8.392 6.859h-51.883a2.033 2.033 0 010-4.064h51.883a2.028 2.028 0 011.441.594 2.028 2.028 0 01.441 2.216 2.028 2.028 0 01-1.882 1.254z" fill="#CCC"/><path d="M91.048 80.06a7.187 7.187 0 007.191-7.184c0-3.967-3.22-7.183-7.191-7.183a7.187 7.187 0 00-7.191 7.183 7.187 7.187 0 007.19 7.184z" fill="#E0AEFF"/><path d="M90.335 75.617a.746.746 0 01-.448-.15l-.008-.005-1.69-1.292a.75.75 0 11.914-1.19l1.094.838 2.587-3.37a.75.75 0 011.053-.14l-.016.023.016-.023a.75.75 0 01.14 1.052l-3.044 3.963a.75.75 0 01-.597.293z" fill="#fff"/><path d="M98.978 103.614a7.176 7.176 0 01-4.438 6.639 7.199 7.199 0 01-2.752.547 1.43 1.43 0 01-.185-.008 7.195 7.195 0 01-6.51-4.56 7.174 7.174 0 011.676-7.764 7.193 7.193 0 017.814-1.473 7.176 7.176 0 014.395 6.62zm-7.93 37.923a7.187 7.187 0 007.191-7.184c0-3.967-3.22-7.183-7.191-7.183a7.187 7.187 0 00-7.191 7.183 7.187 7.187 0 007.19 7.184zm92.03-90.645h-14.783a4.071 4.071 0 01-4.07-4.064V35.92a.258.258 0 01.144-.228.255.255 0 01.269.03l18.598 14.716a.257.257 0 01.082.283.253.253 0 01-.24.17z" fill="#CCC"/><path d="M98.978 103.614a7.176 7.176 0 01-4.437 6.639 7.199 7.199 0 01-2.753.547 1.43 1.43 0 01-.185-.008A15.532 15.532 0 0193 96.532a7.196 7.196 0 014.285 2.45 7.18 7.18 0 011.694 4.632zm8.146-3.428a2.04 2.04 0 012.036-2.034h10.837a15.373 15.373 0 011.337 4.064H109.16a2.038 2.038 0 01-2.036-2.03zm14.462 4.826c0 1.373-.182 2.74-.541 4.065H109.16a2.036 2.036 0 01-2.034-2.033 2.03 2.03 0 012.034-2.032h12.426z" fill="#E0AEFF"/><path d="M148.399 130.078a2.225 2.225 0 01-3.053.738l-25.919-15.791a2.213 2.213 0 01-1.038-2.237 2.216 2.216 0 011.672-1.814 2.235 2.235 0 011.68.262l25.918 15.792a2.215 2.215 0 01.74 3.05z" fill="#3F3D56"/><path d="M122.48 114.286a17.762 17.762 0 01-7.698 6.862 17.794 17.794 0 01-19.51-3.045 17.732 17.732 0 01-4.65-19.17 17.754 17.754 0 016.21-8.23 17.784 17.784 0 0119.731-.815 17.773 17.773 0 018.009 10.977 17.75 17.75 0 01-2.092 13.421zM95.93 98.11a13.303 13.303 0 00.611 14.78 13.334 13.334 0 0023.936-5.792 13.312 13.312 0 00-6.228-13.421 13.356 13.356 0 00-18.32 4.433z" fill="#3F3D56"/><path d="M179.42 107.889c5.022 0 9.094-4.067 9.094-9.084 0-5.016-4.072-9.083-9.094-9.083-5.022 0-9.093 4.067-9.093 9.084 0 5.016 4.071 9.083 9.093 9.083zm-.587 41.837a4.063 4.063 0 013.621-5.299l9.579-15.357-8.75-8.308a3.49 3.49 0 011.025-5.732 3.494 3.494 0 013.833.72l12.081 11.898.024.03a3.16 3.16 0 01-.22 3.766l-13.421 15.855c.04.128.073.257.1.387a4.064 4.064 0 01-2.027 4.358 4.082 4.082 0 01-1.975.508 4.092 4.092 0 01-2.393-.786 4.072 4.072 0 01-1.477-2.04zm-14.39 75.494h-4.539l-2.159-17.488h6.699l-.001 17.488zm45.116-6.269l-3.9 2.32-10.813-13.922 5.756-3.424 8.957 15.026z" fill="#B88990"/><path d="M157.172 217.519c-3.041-35.764-4.849-68.988 6.266-82.542l.086-.105 18.707 7.475.031.067c.063.137 6.284 13.806 4.833 23l4.614 21.201 15.045 25.163a1.67 1.67 0 01.157 1.36 1.678 1.678 0 01-.916 1.017l-6.538 2.874a1.679 1.679 0 01-2.092-.653l-16.366-26.657-9.244-20.446a.557.557 0 00-.909-.153.553.553 0 00-.149.323l-5.125 48.112a1.661 1.661 0 01-1.656 1.488h-5.083a1.675 1.675 0 01-1.661-1.524z" fill="#2F2E41"/><path d="M163.501 135.261l-.089-.043-.014-.098c-.699-4.885.129-10.313 2.459-16.133a12.814 12.814 0 016.015-6.598 12.835 12.835 0 018.869-1.073 12.815 12.815 0 018.168 6.273 12.654 12.654 0 01.878 10.143c-2.937 8.579-6.748 16.607-6.786 16.687l-.08.168-19.42-9.326z" fill="#E0AEFF"/><path d="M143.091 123.093a4.083 4.083 0 014.808-.177 4.07 4.07 0 011.179 1.227c.095.154.179.316.252.482l17.754 3.584 4.728-11.096a3.479 3.479 0 011.922-1.875c.429-.17.887-.254 1.348-.247a3.51 3.51 0 012.464 1.074 3.487 3.487 0 01.667 3.838l-6.927 15.47-.02.033a3.164 3.164 0 01-3.609 1.113l-19.568-7.005a4.07 4.07 0 01-3.628.672 4.064 4.064 0 01-2.765-4.997 4.086 4.086 0 011.395-2.096z" fill="#B88990"/><path d="M212.271 108.533c-.876-1.55-2.152-2.97-3.839-3.543-2.179-.74-4.538.048-6.778.574-1.726.405-3.529.653-5.269.311-1.739-.342-3.417-1.353-4.209-2.938-1.164-2.331-.183-5.11-.254-7.715a9.367 9.367 0 00-3.769-7.27 9.387 9.387 0 00-8.05-1.536c-2.145-.618-4.088-.675-5.414.972-1.67 0-3.271.662-4.451 1.841a6.284 6.284 0 00-1.843 4.446h6.018a5.968 5.968 0 00.909 4.412c1.062 1.56 2.909 2.687 3.265 4.539.345 1.795-.877 3.498-2.158 4.803-1.281 1.305-2.768 2.597-3.168 4.381a5.426 5.426 0 00.779 3.907 12.72 12.72 0 002.735 3.009 40.135 40.135 0 0016.674 8.52c4.334 1.043 9.074 1.313 13.096-.604a12.998 12.998 0 006.801-7.812 12.978 12.978 0 00-1.075-10.297z" fill="#2F2E41"/></g><defs><clipPath id="clip0"><path fill="#fff" d="M0 0h214v230H0z"/></clipPath></defs></svg>